<svg width="207" height="247" viewBox="0 0 207 247" fill="none" xmlns="http://www.w3.org/2000/svg">
<path d="M103.038 243.727L1.54581 183.245V62.2812L103.038 1.79932L204.537 62.2874L204.534 183.245L103.038 243.727V122.763L1.54581 62.2812L103.038 122.763L204.537 62.2874" fill="black"/>
<path d="M101.493 246.448V244.605L0 184.123V61.4032L103.038 0L206.08 61.4094V184.123L101.493 246.448ZM104.584 123.641V241.006L202.985 182.367V65.0081L104.584 123.641ZM3.09165 182.367L101.493 241.006V123.641L3.09165 65.0019V182.367ZM4.56637 62.2813L103.042 120.964L201.52 62.2874L103.042 3.59868L4.56637 62.2813Z" fill="white"/>
<path d="M24.4461 56.8292L26.3722 55.71C27.4233 55.0979 28.6197 54.7455 29.9583 54.6465C31.297 54.5507 32.3914 54.7393 33.2416 55.2123L58.8736 69.5045C59.7392 69.9867 60.6914 70.3144 61.724 70.4845C62.7565 70.6545 63.8138 70.704 64.8897 70.6359C66.8096 70.4876 68.6985 69.9373 70.5565 68.982L80.5577 63.1946C81.5377 62.6443 82.629 62.3383 83.8378 62.2826C85.0466 62.2239 86.0915 62.4341 86.9757 62.9071L88.4164 63.7109L74.0809 72.0488C70.6122 73.9934 67.0723 75.0476 63.4645 75.2083C61.8693 75.2733 60.3297 75.1651 58.8395 74.8837C56.8888 74.5468 55.0555 73.9006 53.3366 72.9422L24.4461 56.8353V56.8292Z" fill="#FE564B"/>
<path d="M91.9315 21.8084C91.0349 21.3076 90.6856 20.6306 90.8865 19.7773C91.0875 18.924 91.7862 18.1511 92.9795 17.4555L94.5562 16.5374L104.573 22.1207C107.735 23.9045 109.12 25.9078 108.731 28.1244C108.388 29.8835 106.959 31.6673 104.44 33.4728L122.794 43.7058L121.27 44.593C120.219 45.2052 119.02 45.5422 117.678 45.6071C116.336 45.672 115.208 45.4463 114.293 44.9393L99.1966 36.5241C96.0803 37.9957 92.9888 38.8428 89.9251 39.0623C85.9864 39.3436 82.4188 38.5924 79.2221 36.8117L69.2519 31.2531L71.1501 30.1494C72.2909 29.5064 73.5275 29.1354 74.8661 29.0364C76.2048 28.9406 77.3394 29.1323 78.273 29.6115L85.0775 33.4048C86.8273 34.3786 88.8121 34.7867 91.0349 34.6228C93.1897 34.4652 95.3353 33.7819 97.4715 32.5762C99.5614 31.3242 100.715 30.0876 100.931 28.8695C101.169 27.602 100.415 26.4797 98.6648 25.5028L91.9253 21.8053L91.9315 21.8084Z" fill="#FDD400"/>
<path d="M100.844 68.1973L131.602 85.346C132.517 85.8561 133.29 86.3477 133.921 86.8238C134.555 87.2999 135.043 87.7543 135.389 88.1902C135.736 88.6261 135.937 89.0435 135.992 89.4392C136.196 90.6294 135.201 91.863 133.009 93.1367C131.083 94.2558 129.166 94.8432 127.255 94.8958C126.987 94.9081 126.708 94.9112 126.415 94.8989C126.124 94.8896 125.812 94.8679 125.481 94.837C125.15 94.8061 124.816 94.7597 124.479 94.7072C124.142 94.6515 123.79 94.5866 123.422 94.5155C123.054 94.4413 122.674 94.3578 122.284 94.262C121.895 94.1662 121.496 94.061 121.091 93.9467C120.686 93.8323 120.265 93.7055 119.83 93.5633L86.277 83.4756C85.7205 83.3674 85.2475 83.4509 84.8611 83.7199C84.4716 83.9919 84.4561 84.2547 84.8116 84.5144C84.8271 84.5237 84.8426 84.5329 84.858 84.5422L114.385 101.008C115.455 101.604 116.005 102.093 116.03 102.473C116.055 102.853 115.569 103.333 114.571 103.914L111.501 105.645L80.7432 88.4963C78.035 86.9876 76.5881 85.6212 76.4026 84.4C76.2357 83.1696 77.2744 81.902 79.522 80.5943C81.4295 79.4845 83.2875 78.9063 85.0991 78.86C86.8922 78.8043 89.2511 79.234 92.1757 80.1553L126.968 90.8397C127.524 90.9479 127.988 90.8706 128.359 90.6109C128.73 90.3512 128.755 90.0884 128.433 89.8287C128.418 89.8195 128.402 89.8102 128.387 89.804L97.9847 72.8531C96.9305 72.2657 96.3895 71.7804 96.3647 71.4001C96.34 71.0198 96.8254 70.5406 97.824 69.9594L100.847 68.2004L100.844 68.1973Z" fill="#1A5EDB"/>
<path d="M160.622 53.1041C163.85 54.925 165.353 56.9097 165.136 59.0645C165.136 59.2253 165.108 59.3861 165.059 59.5406C165.346 59.519 165.631 59.5035 165.915 59.5005C169.675 59.3211 173.196 60.1373 176.473 61.9458L181.716 64.8704L180.272 65.7113C179.166 66.3544 177.892 66.7254 176.445 66.8212C174.998 66.917 173.817 66.713 172.905 66.2029L171.118 65.1147C169.338 64.1223 167.365 63.674 165.201 63.7668C163.136 63.875 161.105 64.4902 159.111 65.6124C157.2 66.7594 156.171 67.9249 156.025 69.1028C155.908 70.3363 156.74 71.4492 158.517 72.4416L163.714 75.3384L162.882 75.8485C162.651 75.9845 162.403 76.1082 162.14 76.2257L162.06 76.272C160.975 76.8842 159.757 77.2273 158.403 77.2953C157.052 77.3633 155.917 77.1438 155.005 76.6337L154.319 76.2504L153.113 75.5795L119.805 57.0087L121.623 55.9514C122.584 55.3918 123.722 55.0796 125.033 55.0177C126.343 54.9559 127.422 55.163 128.273 55.636L149.366 67.3993C150.306 65.9741 151.988 64.5551 154.415 63.1454C154.433 63.1361 154.449 63.1237 154.467 63.1145C154.504 63.0928 154.529 63.0774 154.548 63.0681C156.477 61.9088 157.506 60.7371 157.636 59.5499C157.642 58.2546 157.061 57.3086 155.889 56.7181C154.974 56.208 154.585 55.5402 154.718 54.7086C154.851 53.88 155.469 53.1412 156.573 52.4981L158.016 51.6572L160.613 53.1072L160.622 53.1041Z" fill="#1D987C"/>
</svg>
