<svg width="207" height="247" viewBox="0 0 207 247" fill="none" xmlns="http://www.w3.org/2000/svg">
<path d="M103.034 243.725L1.54271 183.244V62.2812L103.034 1.7998L204.532 62.2873L204.529 183.244L103.034 243.725V122.763L1.54271 62.2812L103.034 122.763L204.532 62.2873" fill="white"/>
<path d="M101.492 246.445V244.603L0 184.121V61.4027L103.037 0L206.078 61.4088V184.121L101.492 246.445ZM104.583 123.64V241.004L202.983 182.365V65.0075L104.583 123.64ZM3.09162 182.365L101.492 241.004V123.64L3.09162 65.0013V182.365ZM4.56631 62.2807L103.041 120.963L201.518 62.2869L103.041 3.59865L4.56631 62.2807Z" fill="black"/>
<path d="M24.3341 56.7565L26.2602 55.6373C27.3113 55.0252 28.5078 54.6727 29.8465 54.5738C31.1851 54.4779 32.2796 54.6665 33.1298 55.1396L58.7624 69.4321C59.628 69.9144 60.5803 70.2421 61.6129 70.4121C62.6455 70.5822 63.7028 70.6316 64.7787 70.5636C66.6986 70.4152 68.5876 69.8649 70.4456 68.9096L80.447 63.1221C81.427 62.5718 82.5184 62.2657 83.7272 62.2101C84.936 62.1513 85.981 62.3616 86.8652 62.8346L88.3059 63.6384L73.9701 71.9765C70.5013 73.9211 66.9614 74.9754 63.3534 75.1361C61.7582 75.2011 60.2185 75.0929 58.7284 74.8115C56.7776 74.4745 54.9442 73.8284 53.2253 72.87L24.3341 56.7627V56.7565Z" fill="#FE564B"/>
<path d="M91.8211 21.7343C90.9245 21.2335 90.5752 20.5565 90.7761 19.7032C90.9771 18.8499 91.6758 18.077 92.8692 17.3814L94.4459 16.4631L104.463 22.0466C107.625 23.8305 109.01 25.8338 108.621 28.0505C108.278 29.8097 106.849 31.5935 104.33 33.399L122.685 43.6323L121.161 44.5196C120.109 45.1317 118.91 45.4687 117.568 45.5336C116.226 45.5986 115.098 45.3729 114.183 44.8658L99.0864 36.4505C95.9701 37.9221 92.8784 38.7692 89.8146 38.9887C85.8759 39.27 82.3082 38.5188 79.1115 36.738L69.141 31.1793L71.0392 30.0755C72.18 29.4325 73.4167 29.0615 74.7554 28.9626C76.094 28.8667 77.2287 29.0584 78.1623 29.5376L84.967 33.331C86.7168 34.3049 88.7017 34.713 90.9245 34.5491C93.0794 34.3914 95.225 33.7082 97.3613 32.5025C99.4512 31.2504 100.604 30.0137 100.821 28.7956C101.059 27.528 100.304 26.4058 98.5546 25.4288L91.8149 21.7313L91.8211 21.7343Z" fill="#FDD400"/>
<path d="M100.734 68.1245L131.493 85.2737C132.408 85.7838 133.181 86.2754 133.811 86.7515C134.445 87.2276 134.934 87.6821 135.28 88.118C135.626 88.5539 135.827 88.9713 135.883 89.367C136.087 90.5573 135.091 91.7909 132.899 93.0646C130.973 94.1838 129.057 94.7712 127.146 94.8237C126.877 94.8361 126.599 94.8392 126.305 94.8268C126.014 94.8175 125.702 94.7959 125.371 94.765C125.041 94.7341 124.707 94.6877 124.37 94.6351C124.033 94.5795 123.68 94.5146 123.312 94.4435C122.944 94.3693 122.564 94.2858 122.175 94.19C121.785 94.0941 121.386 93.989 120.981 93.8746C120.576 93.7602 120.156 93.6335 119.72 93.4912L86.1665 83.4033C85.61 83.2951 85.137 83.3785 84.7506 83.6475C84.361 83.9196 84.3455 84.1824 84.7011 84.4421C84.7165 84.4513 84.732 84.4606 84.7475 84.4699L114.276 100.936C115.345 101.533 115.896 102.021 115.92 102.401C115.945 102.782 115.46 103.261 114.461 103.842L111.391 105.573L80.6325 88.4241C77.9243 86.9154 76.4774 85.5489 76.2919 84.3277C76.1249 83.0972 77.1637 81.8297 79.4113 80.5219C81.3189 79.412 83.1769 78.8339 84.9886 78.7875C86.7817 78.7319 89.1406 79.1616 92.0653 80.0829L126.858 90.7675C127.415 90.8757 127.879 90.7984 128.25 90.5387C128.621 90.2791 128.645 90.0163 128.324 89.7566C128.308 89.7473 128.293 89.738 128.277 89.7318L97.8745 72.7805C96.8202 72.1931 96.2792 71.7077 96.2545 71.3274C96.2297 70.9472 96.7151 70.4679 97.7137 69.8867L100.737 68.1276L100.734 68.1245Z" fill="#1A5EDB"/>
<path d="M160.514 53.0311C163.741 54.8521 165.244 56.8369 165.028 58.9917C165.028 59.1525 165 59.3133 164.95 59.4679C165.238 59.4462 165.522 59.4308 165.807 59.4277C169.566 59.2484 173.087 60.0645 176.365 61.8731L181.608 64.7978L180.164 65.6387C179.057 66.2818 177.784 66.6528 176.337 66.7486C174.89 66.8445 173.709 66.6404 172.797 66.1303L171.01 65.042C169.229 64.0496 167.257 63.6013 165.092 63.6941C163.027 63.8023 160.996 64.4175 159.002 65.5398C157.091 66.6868 156.062 67.8523 155.917 69.0302C155.799 70.2638 156.631 71.3768 158.408 72.3692L163.605 75.266L162.774 75.7762C162.542 75.9122 162.295 76.0358 162.032 76.1533L161.951 76.1997C160.866 76.8118 159.648 77.155 158.294 77.223C156.943 77.291 155.808 77.0715 154.896 76.5614L154.21 76.1781L153.004 75.5072L119.695 56.9358L121.513 55.8785C122.474 55.3189 123.612 55.0067 124.923 54.9448C126.234 54.883 127.313 55.0901 128.163 55.5631L149.257 67.3268C150.197 65.9015 151.879 64.4825 154.306 63.0727C154.324 63.0634 154.34 63.051 154.358 63.0418C154.395 63.0201 154.42 63.0047 154.439 62.9954C156.368 61.836 157.397 60.6643 157.527 59.4771C157.533 58.1817 156.952 57.2357 155.781 56.6452C154.865 56.1351 154.476 55.4673 154.609 54.6357C154.742 53.8071 155.36 53.0682 156.464 52.4251L157.908 51.5842L160.505 53.0342L160.514 53.0311Z" fill="#1D987C"/>
</svg>
