<svg width="129" height="66" viewBox="0 0 129 66" fill="none" xmlns="http://www.w3.org/2000/svg">
<path d="M27.5084 65.0675L0.413086 48.9208V16.6272L27.5084 0.480469L54.6046 16.6289L54.6038 48.9208L27.5084 65.0675V32.774L0.413086 16.6272L27.5084 32.774L54.6046 16.6289" fill="white"/>
<path d="M27.0953 65.7938V65.3018L0 49.1551V16.3927L27.508 0L55.0169 16.3944V49.1551L27.0953 65.7938ZM27.9207 33.0083V64.3411L54.1907 48.6863V17.3551L27.9207 33.0083ZM0.825373 48.6863L27.0953 64.3411V33.0083L0.825373 17.3535V48.6863ZM1.21908 16.6271L27.5089 32.2935L53.7995 16.6288L27.5089 0.960735L1.21908 16.6271Z" fill="black"/>
<path d="M6.49805 15.1527L7.01226 14.8539C7.29288 14.6904 7.6123 14.5964 7.96969 14.5699C8.32708 14.5444 8.61926 14.5947 8.84623 14.721L15.6894 18.5367C15.9205 18.6654 16.1747 18.7529 16.4504 18.7983C16.7261 18.8437 17.0083 18.8569 17.2956 18.8388C17.8081 18.7992 18.3124 18.6522 18.8085 18.3972L21.4786 16.8521C21.7402 16.7052 22.0316 16.6235 22.3543 16.6086C22.677 16.5929 22.9568 16.6491 23.192 16.7753L23.5767 16.9899L19.7494 19.216C18.8233 19.7351 17.8783 20.0166 16.9151 20.0595C16.4892 20.0768 16.0782 20.0479 15.6803 19.9728C15.1595 19.8829 14.6701 19.7104 14.2112 19.4545L6.49805 15.1543V15.1527Z" fill="#FE564B"/>
<path d="M24.5142 5.80277C24.2748 5.66906 24.1815 5.48831 24.2352 5.2605C24.2888 5.0327 24.4754 4.82636 24.794 4.64065L25.2149 4.39551L27.8891 5.88613C28.7335 6.36237 29.1032 6.89722 28.9992 7.48901C28.9076 7.95865 28.5263 8.43489 27.8536 8.9169L32.7539 11.6489L32.347 11.8858C32.0663 12.0492 31.7461 12.1392 31.3879 12.1565C31.0297 12.1738 30.7284 12.1136 30.4841 11.9782L26.4538 9.73155C25.6218 10.1244 24.7964 10.3506 23.9785 10.4092C22.927 10.4843 21.9745 10.2837 21.1211 9.80831L18.4592 8.32429L18.966 8.02963C19.2706 7.85795 19.6007 7.7589 19.9581 7.73249C20.3155 7.7069 20.6184 7.75808 20.8677 7.88601L22.6843 8.89874C23.1515 9.15874 23.6814 9.26768 24.2748 9.22394C24.8501 9.18185 25.4229 8.99944 25.9932 8.67754C26.5512 8.34327 26.859 8.01312 26.9168 7.68792C26.9804 7.34952 26.779 7.04991 26.3118 6.78909L24.5125 5.80195L24.5142 5.80277Z" fill="#FDD400"/>
<path d="M26.8933 18.1875L35.1049 22.7658C35.3493 22.902 35.5556 23.0333 35.724 23.1604C35.8932 23.2875 36.0236 23.4088 36.116 23.5252C36.2085 23.6416 36.2621 23.753 36.277 23.8586C36.3314 24.1764 36.0657 24.5057 35.4805 24.8458C34.9663 25.1446 34.4545 25.3014 33.9445 25.3154C33.8727 25.3187 33.7984 25.3195 33.72 25.3162C33.6424 25.3138 33.559 25.308 33.4707 25.2997C33.3824 25.2915 33.2933 25.2791 33.2033 25.2651C33.1133 25.2502 33.0192 25.2329 32.921 25.2139C32.8228 25.1941 32.7213 25.1718 32.6173 25.1462C32.5133 25.1206 32.4068 25.0926 32.2987 25.062C32.1906 25.0315 32.0783 24.9976 31.9619 24.9597L23.0041 22.2665C22.8556 22.2376 22.7293 22.2599 22.6261 22.3317C22.5221 22.4043 22.518 22.4745 22.6129 22.5438C22.617 22.5463 22.6212 22.5488 22.6253 22.5512L30.5084 26.9472C30.794 27.1065 30.9409 27.2369 30.9475 27.3384C30.9541 27.4399 30.8246 27.5679 30.558 27.723L29.7384 28.1852L21.5267 23.6069C20.8037 23.2041 20.4174 22.8393 20.3679 22.5133C20.3233 22.1848 20.6007 21.8464 21.2007 21.4972C21.71 21.2009 22.206 21.0466 22.6897 21.0342C23.1684 21.0194 23.7982 21.1341 24.579 21.38L33.8677 24.2325C34.0163 24.2614 34.1401 24.2408 34.2391 24.1715C34.3382 24.1021 34.3448 24.032 34.2589 23.9626C34.2548 23.9602 34.2507 23.9577 34.2466 23.956L26.1298 19.4305C25.8484 19.2737 25.7039 19.1441 25.6973 19.0426C25.6907 18.9411 25.8203 18.8131 26.0869 18.658L26.8941 18.1883L26.8933 18.1875Z" fill="#1A5EDB"/>
<path d="M42.8532 14.1578C43.7149 14.6439 44.116 15.1738 44.0583 15.7491C44.0583 15.792 44.0508 15.8349 44.0376 15.8762C44.1144 15.8704 44.1903 15.8663 44.2662 15.8655C45.2699 15.8176 46.21 16.0355 47.0849 16.5183L48.4847 17.2991L48.0993 17.5236C47.8038 17.6953 47.4637 17.7944 47.0775 17.8199C46.6912 17.8455 46.3759 17.791 46.1324 17.6549L45.6553 17.3643C45.1799 17.0994 44.6533 16.9797 44.0756 17.0045C43.5242 17.0334 42.982 17.1976 42.4496 17.4972C41.9395 17.8034 41.6647 18.1146 41.6259 18.4291C41.5945 18.7584 41.8165 19.0555 42.2911 19.3205L43.6786 20.0938L43.4566 20.23C43.3947 20.2663 43.3286 20.2994 43.2585 20.3307L43.237 20.3431C42.9473 20.5065 42.6221 20.5981 42.2606 20.6163C41.8999 20.6345 41.597 20.5759 41.3535 20.4397L41.1703 20.3373L40.8484 20.1582L31.9558 15.2002L32.4411 14.9179C32.6978 14.7685 33.0016 14.6852 33.3515 14.6687C33.7015 14.6522 33.9895 14.7075 34.2165 14.8337L39.848 17.9743C40.0989 17.5938 40.5479 17.2149 41.1959 16.8386C41.2008 16.8361 41.2049 16.8328 41.2099 16.8303C41.2198 16.8245 41.2264 16.8204 41.2313 16.8179C41.7464 16.5084 42.0212 16.1956 42.0559 15.8787C42.0576 15.5328 41.9024 15.2803 41.5896 15.1226C41.3453 14.9864 41.2413 14.8082 41.2767 14.5861C41.3122 14.3649 41.4773 14.1677 41.772 13.996L42.1574 13.7715L42.8507 14.1586L42.8532 14.1578Z" fill="#1D987C"/>
<path d="M64.3138 24.3008H65.1219C65.5634 24.3008 65.939 24.4254 66.2493 24.6738C66.5597 24.9223 66.7148 25.2235 66.7148 25.576V36.22C66.7148 36.5799 66.7899 36.9001 66.9393 37.1816C67.0887 37.463 67.2868 37.7048 67.5344 37.9079C67.9834 38.2611 68.5744 38.4609 69.3073 38.5063L73.4928 38.5162C73.8964 38.5228 74.2331 38.6433 74.503 38.8793C74.7729 39.1154 74.9108 39.4125 74.9182 39.7724V40.3708H68.9029C67.4742 40.3444 66.3591 39.9787 65.5585 39.2722C65.2069 38.9586 64.9304 38.5921 64.7281 38.1737C64.4516 37.6372 64.313 37.0132 64.313 36.3V24.3024L64.3138 24.3008Z" fill="white"/>
<path d="M89.0626 25.8409C89.0626 25.4678 89.24 25.1476 89.5957 24.8793C89.9507 24.6111 90.379 24.4774 90.8808 24.4774H91.5428V28.6364C91.5354 29.9579 91.0822 30.9813 90.1851 31.7068C89.467 32.2755 88.517 32.6222 87.3342 32.7468V40.3691H86.6946C86.253 40.3691 85.8824 40.2387 85.5836 39.9771C85.284 39.7154 85.1346 39.3952 85.1346 39.0155V32.7468C83.9527 32.623 83.006 32.2755 82.2953 31.7068C81.3825 30.9747 80.926 29.9447 80.926 28.6166V24.4766H81.7225C82.1938 24.4832 82.585 24.6103 82.8954 24.8595C83.2057 25.108 83.3683 25.4183 83.3832 25.7914V28.6166C83.3832 29.3421 83.6415 29.9116 84.1574 30.3235C84.6584 30.7222 85.3509 30.9285 86.2332 30.9417C87.1238 30.9285 87.8154 30.723 88.309 30.3235C88.8249 29.9116 89.0832 29.3421 89.0832 28.6166L89.0609 25.8401L89.0626 25.8409Z" fill="white"/>
<path d="M111.164 24.4579V37.2305C111.164 37.6102 111.142 37.9535 111.096 38.2606C111.052 38.5684 110.984 38.8375 110.894 39.0703C110.804 39.3022 110.692 39.497 110.557 39.6538C110.161 40.1317 109.503 40.3702 108.582 40.3702C107.774 40.3702 107.164 40.1771 106.753 39.7916C106.693 39.7396 106.635 39.6802 106.579 39.615C106.523 39.5498 106.467 39.4763 106.411 39.3946C106.355 39.3129 106.302 39.2263 106.254 39.1346C106.205 39.043 106.156 38.9448 106.108 38.84C106.059 38.7352 106.012 38.6237 105.967 38.5065C105.923 38.3885 105.879 38.2663 105.839 38.1384C105.797 38.0105 105.759 37.8751 105.721 37.7315L102.545 26.9406C102.47 26.7838 102.342 26.7136 102.163 26.7293C101.984 26.7458 101.883 26.8391 101.86 27.0091V39.2906C101.86 39.7355 101.793 40.0302 101.658 40.1738C101.524 40.3174 101.246 40.3892 100.828 40.3892L99.5601 40.3694V27.5968C99.5601 26.4718 99.7656 25.6679 100.177 25.1834C100.597 24.6997 101.277 24.457 102.22 24.457C103.021 24.457 103.615 24.6403 104.005 25.0067C104.393 25.3666 104.719 26.0236 104.981 26.9785L108.191 38.2498C108.266 38.4067 108.389 38.4768 108.562 38.4611C108.733 38.4446 108.835 38.3547 108.864 38.1912V25.5465C108.864 25.1083 108.932 24.8177 109.067 24.6733C109.201 24.5297 109.478 24.4579 109.897 24.4579H111.165H111.164Z" fill="white"/>
<path d="M129 31.6297C128.992 32.9767 128.57 34.02 127.732 34.7587C127.672 34.8173 127.608 34.8701 127.541 34.9155C127.609 34.9683 127.672 35.0236 127.732 35.0822C128.57 35.8151 128.992 36.8576 129 38.2112V40.3894H128.394C127.93 40.3894 127.532 40.254 127.199 39.9824C126.866 39.7109 126.7 39.3857 126.7 39.006L126.733 38.231C126.733 37.4923 126.494 36.9104 126.015 36.4845C125.551 36.0859 124.908 35.8795 124.085 35.8663C123.269 35.8795 122.63 36.0859 122.166 36.4845C121.687 36.9096 121.448 37.4915 121.448 38.231V40.3894L121.089 40.3993C120.991 40.3993 120.894 40.3927 120.797 40.3795H120.763C120.314 40.3728 119.938 40.2391 119.635 39.9775C119.332 39.7159 119.18 39.3956 119.18 39.0159V24.3994H119.944C120.347 24.3994 120.696 24.5265 120.987 24.7824C121.279 25.0382 121.425 25.3412 121.425 25.6944V34.4549C122.143 34.1347 123.011 33.9746 124.028 33.9746H124.084C124.907 33.9614 125.55 33.7525 126.015 33.3464C126.493 32.8752 126.722 32.408 126.699 31.9433C126.699 31.5645 126.865 31.2368 127.198 30.9619C127.531 30.6871 127.929 30.5501 128.393 30.5501H128.999V31.6288L129 31.6297Z" fill="white"/>
</svg>
