<svg width="138" height="71" viewBox="0 0 138 71" fill="none" xmlns="http://www.w3.org/2000/svg">
<path d="M29.3652 69.4301L0.476562 52.2147V17.7838L29.3652 0.568359L58.2547 17.7856L58.2538 52.2147L29.3652 69.4301V34.9992L0.476562 17.7838L29.3652 34.9992L58.2547 17.7856" fill="black"/>
<path d="M28.9253 70.205V69.6805L0.0366211 52.465V17.5343L29.3653 0.0566406L58.6948 17.5361V52.465L28.9253 70.205ZM29.8053 35.2496V68.6562L57.8139 51.9652V18.5604L29.8053 35.2496ZM0.916621 51.9652L28.9253 68.6562V35.2496L0.916621 18.5586V51.9652ZM1.33638 17.7842L29.3661 34.4875L57.3968 17.786L29.3661 1.08096L1.33638 17.7842Z" fill="white"/>
<path d="M6.96387 16.2112L7.51211 15.8926C7.81131 15.7184 8.15187 15.6181 8.53291 15.5899C8.91395 15.5626 9.22547 15.6163 9.46747 15.7509L16.7635 19.8192C17.0099 19.9565 17.281 20.0497 17.5749 20.0981C17.8688 20.1465 18.1698 20.1606 18.476 20.1413C19.0225 20.099 19.5602 19.9424 20.0891 19.6705L22.9359 18.0231C23.2148 17.8665 23.5255 17.7793 23.8695 17.7635C24.2136 17.7468 24.5119 17.8066 24.7627 17.9413L25.1728 18.1701L21.0923 20.5434C20.1049 21.0969 19.0973 21.397 18.0703 21.4428C17.6163 21.4613 17.178 21.4305 16.7539 21.3504C16.1986 21.2545 15.6767 21.0705 15.1875 20.7977L6.96387 16.2129V16.2112Z" fill="#FE564B"/>
<path d="M26.1725 6.24259C25.9173 6.10003 25.8178 5.90731 25.875 5.66443C25.9322 5.42155 26.1311 5.20155 26.4708 5.00355L26.9196 4.74219L29.7708 6.33147C30.671 6.83923 31.0653 7.40947 30.9544 8.04043C30.8567 8.54115 30.4502 9.04891 29.733 9.56283L34.9575 12.4756L34.5237 12.7282C34.2245 12.9024 33.883 12.9984 33.5011 13.0168C33.1192 13.0353 32.798 12.9711 32.5375 12.8267L28.2405 10.4314C27.3534 10.8503 26.4734 11.0914 25.6014 11.1539C24.4802 11.234 23.4647 11.0201 22.5548 10.5132L19.7168 8.93099L20.2571 8.61683C20.5818 8.43379 20.9338 8.32819 21.3149 8.30003C21.6959 8.27275 22.0189 8.32731 22.2846 8.46371L24.2215 9.54347C24.7196 9.82067 25.2846 9.93683 25.9173 9.89019C26.5306 9.84531 27.1414 9.65083 27.7494 9.30763C28.3443 8.95123 28.6726 8.59923 28.7342 8.25251C28.8019 7.89171 28.5872 7.57227 28.0891 7.29419L26.1707 6.24171L26.1725 6.24259Z" fill="#FDD400"/>
<path d="M28.7098 19.4473L37.4649 24.3286C37.7254 24.4738 37.9454 24.6137 38.1249 24.7493C38.3053 24.8848 38.4443 25.0141 38.5429 25.1382C38.6415 25.2623 38.6987 25.3811 38.7145 25.4937C38.7726 25.8325 38.4892 26.1837 37.8653 26.5462C37.3171 26.8648 36.7715 27.032 36.2276 27.0469C36.1511 27.0505 36.0718 27.0513 35.9882 27.0478C35.9055 27.0452 35.8167 27.039 35.7225 27.0302C35.6283 27.0214 35.5333 27.0082 35.4374 26.9933C35.3415 26.9774 35.2411 26.9589 35.1364 26.9387C35.0317 26.9176 34.9235 26.8938 34.8126 26.8665C34.7017 26.8393 34.5882 26.8093 34.4729 26.7768C34.3576 26.7442 34.2379 26.7081 34.1139 26.6677L24.5632 23.7962C24.4048 23.7654 24.2702 23.7892 24.1602 23.8657C24.0493 23.9432 24.0449 24.018 24.1461 24.0919C24.1505 24.0945 24.1549 24.0972 24.1593 24.0998L32.5642 28.7867C32.8687 28.9565 33.0253 29.0956 33.0323 29.2038C33.0394 29.3121 32.9012 29.4485 32.617 29.6139L31.7431 30.1067L22.988 25.2253C22.2171 24.7959 21.8053 24.4069 21.7525 24.0593C21.705 23.7091 22.0007 23.3483 22.6404 22.9761C23.1834 22.6601 23.7123 22.4956 24.2279 22.4824C24.7383 22.4665 25.4098 22.5889 26.2423 22.8511L36.1458 25.8924C36.3042 25.9232 36.4362 25.9012 36.5418 25.8273C36.6474 25.7533 36.6544 25.6785 36.5629 25.6046C36.5585 25.602 36.5541 25.5993 36.5497 25.5976L27.8958 20.7725C27.5957 20.6053 27.4417 20.4672 27.4347 20.3589C27.4276 20.2507 27.5658 20.1143 27.85 19.9489L28.7107 19.4481L28.7098 19.4473Z" fill="#1A5EDB"/>
<path d="M45.7261 15.1511C46.6448 15.6694 47.0725 16.2344 47.0109 16.8477C47.0109 16.8935 47.0029 16.9393 46.9889 16.9833C47.0707 16.9771 47.1517 16.9727 47.2326 16.9718C48.3027 16.9208 49.305 17.1531 50.2378 17.6679L51.7303 18.5004L51.3193 18.7397C51.0043 18.9228 50.6417 19.0284 50.2299 19.0557C49.8181 19.0829 49.4819 19.0249 49.2223 18.8797L48.7137 18.5699C48.2068 18.2874 47.6453 18.1598 47.0293 18.1862C46.4415 18.217 45.8633 18.3921 45.2957 18.7116C44.7519 19.0381 44.4589 19.3698 44.4175 19.7051C44.3841 20.0562 44.6208 20.373 45.1268 20.6555L46.6061 21.4801L46.3693 21.6253C46.3033 21.664 46.2329 21.6992 46.1581 21.7326L46.1353 21.7458C45.8264 21.9201 45.4797 22.0177 45.0942 22.0371C44.7097 22.0565 44.3867 21.994 44.1271 21.8488L43.9317 21.7397L43.5885 21.5487L34.1074 16.2625L34.6249 15.9616C34.8985 15.8023 35.2224 15.7134 35.5955 15.6958C35.9686 15.6782 36.2757 15.7372 36.5177 15.8718L42.522 19.2202C42.7895 18.8145 43.2682 18.4106 43.959 18.0093C43.9643 18.0067 43.9687 18.0032 43.974 18.0005C43.9845 17.9944 43.9916 17.99 43.9969 17.9873C44.546 17.6573 44.839 17.3238 44.876 16.9859C44.8777 16.6172 44.7123 16.3479 44.3788 16.1798C44.1183 16.0346 44.0074 15.8445 44.0453 15.6078C44.0831 15.372 44.2591 15.1617 44.5733 14.9786L44.9842 14.7393L45.7234 15.152L45.7261 15.1511Z" fill="#1D987C"/>
<path d="M68.6068 25.9658H69.4684C69.9392 25.9658 70.3396 26.0987 70.6704 26.3636C71.0013 26.6285 71.1668 26.9497 71.1668 27.3254V38.6739C71.1668 39.0576 71.2468 39.399 71.4061 39.6991C71.5654 39.9992 71.7766 40.257 72.0406 40.4735C72.5193 40.8501 73.1494 41.0631 73.9308 41.1115L78.3933 41.1221C78.8236 41.1291 79.1827 41.2576 79.4704 41.5093C79.7582 41.7609 79.9052 42.0777 79.9131 42.4614V43.0994H73.4996C71.9764 43.0713 70.7875 42.6814 69.9339 41.9281C69.559 41.5937 69.2642 41.203 69.0486 40.7569C68.7538 40.1849 68.606 39.5196 68.606 38.7593V25.9676L68.6068 25.9658Z" fill="black"/>
<path d="M94.9934 27.608C94.9934 27.2102 95.1826 26.8688 95.5619 26.5828C95.9403 26.2968 96.397 26.1542 96.932 26.1542H97.6378V30.5885C97.6299 31.9974 97.1468 33.0886 96.1902 33.8621C95.4246 34.4684 94.4117 34.838 93.1507 34.9709V43.0977H92.4687C91.9979 43.0977 91.6028 42.9587 91.2842 42.6797C90.9648 42.4008 90.8055 42.0593 90.8055 41.6545V34.9709C89.5453 34.8389 88.536 34.4684 87.7783 33.8621C86.805 33.0816 86.3184 31.9833 86.3184 30.5674V26.1533H87.1676C87.67 26.1604 88.0872 26.2959 88.418 26.5616C88.7489 26.8265 88.9223 27.1574 88.9381 27.5552V30.5674C88.9381 31.3409 89.2136 31.9481 89.7636 32.3872C90.2977 32.8123 91.036 33.0323 91.9768 33.0464C92.9263 33.0323 93.6637 32.8132 94.19 32.3872C94.74 31.9481 95.0154 31.3409 95.0154 30.5674L94.9916 27.6071L94.9934 27.608Z" fill="black"/>
<path d="M118.557 26.1327V39.7507C118.557 40.1555 118.534 40.5216 118.485 40.849C118.438 41.1772 118.366 41.4641 118.27 41.7122C118.174 41.9595 118.054 42.1672 117.911 42.3344C117.488 42.843 116.786 43.0982 115.805 43.0982C114.943 43.0982 114.293 42.8923 113.855 42.4814C113.791 42.4259 113.729 42.3626 113.669 42.293C113.609 42.2235 113.549 42.1452 113.49 42.0581C113.43 41.971 113.373 41.8786 113.322 41.7809C113.27 41.6832 113.219 41.5785 113.167 41.4667C113.115 41.355 113.065 41.237 113.017 41.1112C112.969 40.9854 112.923 40.8551 112.88 40.7187C112.836 40.5823 112.794 40.438 112.754 40.2849L109.368 28.7798C109.288 28.6126 109.152 28.5378 108.961 28.5545C108.77 28.5721 108.662 28.6715 108.638 28.8528V41.9472C108.638 42.4215 108.566 42.7348 108.423 42.8888C108.279 43.0419 107.983 43.1185 107.537 43.1185L106.186 43.0974V29.4794C106.186 28.2799 106.405 27.4228 106.844 26.9062C107.291 26.3906 108.016 26.1318 109.022 26.1318C109.875 26.1318 110.509 26.3272 110.924 26.7179C111.339 27.1016 111.686 27.8021 111.965 28.8202L115.388 40.8375C115.468 41.0047 115.599 41.0795 115.783 41.0628C115.966 41.0452 116.074 40.9493 116.106 40.775V27.2934C116.106 26.8262 116.178 26.5164 116.321 26.3624C116.465 26.2093 116.76 26.1327 117.207 26.1327H118.558H118.557Z" fill="black"/>
<path d="M137.574 33.7791C137.566 35.2153 137.116 36.3276 136.223 37.1152C136.158 37.1777 136.091 37.234 136.019 37.2824C136.092 37.3387 136.158 37.3977 136.223 37.4601C137.116 38.2416 137.566 39.353 137.574 40.7962V43.1185H136.928C136.434 43.1185 136.009 42.9742 135.654 42.6847C135.3 42.3952 135.122 42.0485 135.122 41.6437L135.158 40.8173C135.158 40.0297 134.903 39.4093 134.392 38.9553C133.898 38.5302 133.211 38.3102 132.334 38.2961C131.465 38.3102 130.783 38.5302 130.288 38.9553C129.778 39.4085 129.522 40.0289 129.522 40.8173V43.1185L129.14 43.1291C129.036 43.1291 128.932 43.1221 128.828 43.108H128.792C128.313 43.1009 127.913 42.9584 127.59 42.6794C127.267 42.4005 127.105 42.059 127.105 41.6542V26.0703H127.919C128.349 26.0703 128.721 26.2058 129.031 26.4786C129.342 26.7514 129.498 27.0744 129.498 27.451V36.7913C130.263 36.4499 131.189 36.2792 132.273 36.2792H132.333C133.21 36.2651 133.896 36.0425 134.391 35.6095C134.902 35.107 135.146 34.6089 135.121 34.1135C135.121 33.7096 135.299 33.3602 135.653 33.0672C136.008 32.7741 136.433 32.6281 136.928 32.6281H137.573V33.7782L137.574 33.7791Z" fill="black"/>
</svg>
