<?xml version="1.0" encoding="UTF-8"?>
<svg id="Layer_1" data-name="Layer 1" xmlns="http://www.w3.org/2000/svg" viewBox="0 0 2000 2000">
  <defs>
    <style>
      .cls-1 {
        fill: #fff;
      }
    </style>
  </defs>
  <rect y="0" width="2000" height="2000"/>
  <g>
    <path class="cls-1" d="m608.14,902.48h9.79c5.35,0,9.9,1.51,13.66,4.52,3.76,3.01,5.64,6.66,5.64,10.93v128.96c0,4.36.91,8.24,2.72,11.65,1.81,3.41,4.21,6.34,7.21,8.79,5.44,4.28,12.6,6.7,21.48,7.25l50.71.12c4.89.08,8.97,1.54,12.24,4.4,3.26,2.85,4.94,6.46,5.03,10.82v7.25h-72.88c-17.31-.32-30.82-4.75-40.52-13.31-4.26-3.8-7.61-8.24-10.06-13.31-3.35-6.5-5.03-14.06-5.03-22.7v-145.36Z"/>
    <path class="cls-1" d="m907.99,921.14c0-4.52,2.15-8.4,6.46-11.65,4.3-3.25,9.49-4.87,15.57-4.87h8.02v50.39c-.09,16.01-5.58,28.41-16.45,37.2-8.7,6.89-20.21,11.09-34.54,12.6v92.35h-7.75c-5.35,0-9.84-1.58-13.46-4.75-3.63-3.17-5.44-7.05-5.44-11.65v-75.95c-14.32-1.5-25.79-5.71-34.4-12.6-11.06-8.87-16.59-21.35-16.59-37.44v-50.16h9.65c5.71.08,10.45,1.62,14.21,4.64,3.76,3.01,5.73,6.77,5.91,11.29v34.23c0,8.79,3.13,15.69,9.38,20.68,6.07,4.83,14.46,7.33,25.15,7.49,10.79-.16,19.17-2.65,25.15-7.49,6.25-4.99,9.38-11.89,9.38-20.68l-.27-33.64Z"/>
    <path class="cls-1" d="m1175.76,904.38v154.75c0,4.6-.27,8.76-.82,12.48-.54,3.73-1.36,6.99-2.45,9.81-1.09,2.81-2.45,5.17-4.08,7.07-4.8,5.78-12.78,8.68-23.93,8.68-9.79,0-17.18-2.34-22.16-7.01-.73-.63-1.43-1.35-2.11-2.14-.68-.79-1.36-1.68-2.04-2.67-.68-.99-1.32-2.04-1.9-3.15-.59-1.11-1.18-2.3-1.77-3.57-.59-1.27-1.16-2.62-1.7-4.04s-1.07-2.91-1.56-4.46c-.5-1.54-.97-3.19-1.43-4.93l-38.48-130.74c-.91-1.9-2.45-2.75-4.62-2.56-2.17.2-3.4,1.33-3.67,3.39v148.8c0,5.39-.82,8.96-2.45,10.7-1.63,1.74-4.99,2.62-10.06,2.62l-15.36-.24v-154.75c0-13.63,2.49-23.37,7.48-29.24,5.08-5.86,13.32-8.79,24.75-8.79,9.7,0,16.9,2.22,21.62,6.66,4.71,4.36,8.66,12.32,11.83,23.89l38.89,136.56c.91,1.9,2.4,2.75,4.49,2.55,2.08-.2,3.31-1.29,3.67-3.27v-153.2c0-5.31.82-8.83,2.45-10.58,1.63-1.74,4.98-2.61,10.06-2.61h15.36Z"/>
    <path class="cls-1" d="m1391.86,991.26c-.09,16.32-5.21,28.96-15.36,37.91-.73.71-1.5,1.35-2.31,1.9.82.63,1.58,1.31,2.31,2.02,10.15,8.88,15.27,21.51,15.36,37.91v26.39h-7.34c-5.62,0-10.45-1.64-14.48-4.93-4.03-3.29-6.05-7.23-6.05-11.83l.41-9.39c0-8.95-2.9-16-8.7-21.16-5.62-4.83-13.42-7.33-23.39-7.49-9.88.16-17.63,2.66-23.25,7.49-5.8,5.15-8.7,12.2-8.7,21.16v26.15l-4.35.12c-1.18,0-2.36-.08-3.54-.24h-.41c-5.44-.08-9.99-1.7-13.66-4.87-3.67-3.17-5.51-7.05-5.51-11.65v-177.09h9.25c4.89,0,9.11,1.54,12.64,4.63s5.3,6.77,5.3,11.05v106.14c8.7-3.88,19.22-5.82,31.54-5.82h.68c9.97-.16,17.76-2.69,23.39-7.61,5.8-5.71,8.57-11.37,8.29-17,0-4.59,2.02-8.56,6.05-11.89,4.03-3.33,8.86-4.99,14.48-4.99h7.34v13.07Z"/>
  </g>
</svg>