<?xml version="1.0" encoding="UTF-8"?>
<svg id="Layer_1" data-name="Layer 1" xmlns="http://www.w3.org/2000/svg" viewBox="0 0 2000 2000">
  <defs>
    <style>
      .cls-1 {
        fill: #fff;
      }

      .cls-2 {
        fill: #1a5edb;
      }

      .cls-3 {
        fill: #fdd400;
      }

      .cls-4 {
        fill: #1d987c;
      }

      .cls-5 {
        fill: #fe564b;
      }
    </style>
  </defs>
  <rect width="2000" height="2000"/>
  <g>
    <g>
      <polyline class="cls-1" points="504.15 1391.26 175.87 1195.63 175.87 804.37 504.15 608.74 832.44 804.39 832.43 1195.63 504.15 1391.26 504.15 1000 175.87 804.37 504.15 1000 832.44 804.39"/>
      <path d="m499.15,1400.06v-5.96l-328.28-195.63v-396.94l333.28-198.61,333.29,198.63v396.92s-338.29,201.59-338.29,201.59Zm10-397.22v379.62l318.28-189.67v-379.6s-318.28,189.65-318.28,189.65Zm-328.28,189.95l318.28,189.67v-379.62l-318.28-189.67v379.62Zm4.77-388.42l318.52,189.81,318.53-189.79-318.53-189.83-318.52,189.81Z"/>
    </g>
    <g>
      <path class="cls-5" d="m249.59,786.5l6.23-3.62c3.4-1.98,7.27-3.12,11.6-3.44,4.33-.31,7.87.3,10.62,1.83l82.91,46.23c2.8,1.56,5.88,2.62,9.22,3.17,3.34.55,6.76.71,10.24.49,6.21-.48,12.32-2.26,18.33-5.35l32.35-18.72c3.17-1.78,6.7-2.77,10.61-2.95,3.91-.19,7.3.49,10.15,2.02l4.66,2.6-46.37,26.97c-11.22,6.29-22.67,9.7-34.34,10.22-5.16.21-10.14-.14-14.96-1.05-6.31-1.09-12.24-3.18-17.8-6.28l-93.45-52.1Z"/>
      <path class="cls-3" d="m467.87,673.22c-2.9-1.62-4.03-3.81-3.38-6.57.65-2.76,2.91-5.26,6.77-7.51l5.1-2.97,32.4,18.06c10.23,5.77,14.71,12.25,13.45,19.42-1.11,5.69-5.73,11.46-13.88,17.3l59.37,33.1-4.93,2.87c-3.4,1.98-7.28,3.07-11.62,3.28-4.34.21-7.99-.52-10.95-2.16l-48.83-27.22c-10.08,4.76-20.08,7.5-29.99,8.21-12.74.91-24.28-1.52-34.62-7.28l-32.25-17.98,6.14-3.57c3.69-2.08,7.69-3.28,12.02-3.6,4.33-.31,8,.31,11.02,1.86l22.01,12.27c5.66,3.15,12.08,4.47,19.27,3.94,6.97-.51,13.91-2.72,20.82-6.62,6.76-4.05,10.49-8.05,11.19-11.99.77-4.1-1.67-7.73-7.33-10.89l-21.8-11.96Z"/>
      <path class="cls-2" d="m496.7,823.27l99.49,55.47c2.96,1.65,5.46,3.24,7.5,4.78,2.05,1.54,3.63,3.01,4.75,4.42,1.12,1.41,1.77,2.76,1.95,4.04.66,3.85-2.56,7.84-9.65,11.96-6.23,3.62-12.43,5.52-18.61,5.69-.87.04-1.77.05-2.72.01-.94-.03-1.95-.1-3.02-.2-1.07-.1-2.15-.25-3.24-.42-1.09-.18-2.23-.39-3.42-.62-1.19-.24-2.42-.51-3.68-.82-1.26-.31-2.55-.65-3.86-1.02-1.31-.37-2.67-.78-4.08-1.24l-108.53-32.63c-1.8-.35-3.33-.08-4.58.79-1.26.88-1.31,1.73-.16,2.57.05.03.1.06.15.09l95.51,53.26c3.46,1.93,5.24,3.51,5.32,4.74s-1.49,2.78-4.72,4.66l-9.93,5.6-99.49-55.47c-8.76-4.88-13.44-9.3-14.04-13.25-.54-3.98,2.82-8.08,10.09-12.31,6.17-3.59,12.18-5.46,18.04-5.61,5.8-.18,13.43,1.21,22.89,4.19l112.54,34.56c1.8.35,3.3.1,4.5-.74,1.2-.84,1.28-1.69.24-2.53-.05-.03-.1-.06-.15-.08l-98.34-54.83c-3.41-1.9-5.16-3.47-5.24-4.7-.08-1.23,1.49-2.78,4.72-4.66l9.78-5.69Z"/>
      <path class="cls-4" d="m690.06,774.45c10.44,5.89,15.3,12.31,14.6,19.28,0,.52-.09,1.04-.25,1.54.93-.07,1.85-.12,2.77-.13,12.16-.58,23.55,2.06,34.15,7.91l16.96,9.46-4.67,2.72c-3.58,2.08-7.7,3.28-12.38,3.59-4.68.31-8.5-.35-11.45-2l-5.78-3.52c-5.76-3.21-12.14-4.66-19.14-4.36-6.68.35-13.25,2.34-19.7,5.97-6.18,3.71-9.51,7.48-9.98,11.29-.38,3.99,2.31,7.59,8.06,10.8l16.81,9.37-2.69,1.65c-.75.44-1.55.84-2.4,1.22l-.26.15c-3.51,1.98-7.45,3.09-11.83,3.31-4.37.22-8.04-.49-10.99-2.14l-2.22-1.24-3.9-2.17-107.74-60.07,5.88-3.42c3.11-1.81,6.79-2.82,11.03-3.02,4.24-.2,7.73.47,10.48,2l68.23,38.05c3.04-4.61,8.48-9.2,16.33-13.76.06-.03.11-.07.17-.1.12-.07.2-.12.26-.15,6.24-3.75,9.57-7.54,9.99-11.38.02-4.19-1.86-7.25-5.65-9.16-2.96-1.65-4.22-3.81-3.79-6.5.43-2.68,2.43-5.07,6-7.15l4.67-2.72,8.4,4.69Z"/>
    </g>
    <g>
      <path class="cls-1" d="m950.08,897.34h9.79c5.35,0,9.9,1.51,13.66,4.52,3.76,3.01,5.64,6.66,5.64,10.93v128.96c0,4.36.91,8.24,2.72,11.65,1.81,3.41,4.21,6.34,7.21,8.8,5.44,4.28,12.6,6.7,21.48,7.25l50.71.12c4.89.08,8.97,1.54,12.24,4.4s4.94,6.46,5.03,10.82v7.25h-72.88c-17.31-.32-30.82-4.75-40.52-13.31-4.26-3.8-7.61-8.24-10.06-13.31-3.35-6.5-5.03-14.06-5.03-22.7v-145.36Z"/>
      <path class="cls-1" d="m1249.93,916c0-4.52,2.15-8.4,6.46-11.65,4.3-3.25,9.49-4.87,15.57-4.87h8.02v50.39c-.09,16.01-5.58,28.41-16.45,37.2-8.7,6.89-20.21,11.09-34.54,12.6v92.35h-7.75c-5.35,0-9.84-1.58-13.46-4.75-3.63-3.17-5.44-7.05-5.44-11.65v-75.95c-14.32-1.5-25.79-5.71-34.4-12.6-11.06-8.87-16.59-21.35-16.59-37.44v-50.16h9.65c5.71.08,10.45,1.62,14.21,4.64,3.76,3.01,5.73,6.77,5.91,11.29v34.23c0,8.79,3.13,15.69,9.38,20.68,6.07,4.83,14.46,7.33,25.15,7.49,10.79-.16,19.17-2.65,25.15-7.49,6.25-4.99,9.38-11.89,9.38-20.68l-.27-33.64Z"/>
      <path class="cls-1" d="m1517.7,899.24v154.75c0,4.6-.27,8.76-.82,12.48-.54,3.73-1.36,6.99-2.45,9.81-1.09,2.81-2.45,5.17-4.08,7.07-4.8,5.79-12.78,8.68-23.93,8.68-9.79,0-17.18-2.34-22.16-7.01-.73-.63-1.43-1.35-2.11-2.14-.68-.79-1.36-1.68-2.04-2.67-.68-.99-1.32-2.04-1.9-3.15-.59-1.11-1.18-2.3-1.77-3.57-.59-1.27-1.16-2.62-1.7-4.04-.54-1.43-1.07-2.91-1.56-4.46-.5-1.55-.97-3.19-1.43-4.93l-38.48-130.74c-.91-1.9-2.45-2.75-4.62-2.56-2.17.2-3.4,1.33-3.67,3.39v148.8c0,5.39-.82,8.96-2.45,10.7-1.63,1.74-4.99,2.61-10.06,2.61l-15.36-.24v-154.75c0-13.63,2.49-23.37,7.48-29.24,5.08-5.86,13.32-8.8,24.75-8.8,9.7,0,16.9,2.22,21.62,6.66,4.71,4.36,8.66,12.32,11.83,23.89l38.89,136.56c.91,1.9,2.4,2.75,4.49,2.56,2.08-.2,3.31-1.29,3.67-3.27v-153.2c0-5.31.82-8.83,2.45-10.58,1.63-1.74,4.98-2.61,10.06-2.61h15.36Z"/>
      <path class="cls-1" d="m1733.8,986.13c-.09,16.32-5.21,28.96-15.36,37.91-.73.71-1.5,1.35-2.31,1.9.82.64,1.58,1.31,2.31,2.02,10.15,8.88,15.27,21.51,15.36,37.91v26.39h-7.34c-5.62,0-10.45-1.64-14.48-4.93-4.03-3.29-6.05-7.23-6.05-11.83l.41-9.39c0-8.95-2.9-16-8.7-21.16-5.62-4.83-13.42-7.33-23.39-7.49-9.88.16-17.63,2.66-23.25,7.49-5.8,5.15-8.7,12.2-8.7,21.16v26.15l-4.35.12c-1.18,0-2.36-.08-3.54-.24h-.41c-5.44-.08-9.99-1.7-13.66-4.87-3.67-3.17-5.51-7.05-5.51-11.65v-177.09h9.25c4.89,0,9.11,1.54,12.64,4.64s5.3,6.77,5.3,11.05v106.14c8.7-3.88,19.22-5.82,31.54-5.82h.68c9.97-.16,17.76-2.69,23.39-7.61,5.8-5.71,8.57-11.37,8.29-17,0-4.59,2.02-8.56,6.05-11.89,4.03-3.33,8.86-4.99,14.48-4.99h7.34v13.07Z"/>
    </g>
  </g>
</svg>